<svg xmlns="http://www.w3.org/2000/svg" xmlns:xlink="http://www.w3.org/1999/xlink" viewBox="0 0 209.19 293.03">
    <defs>
        <style>
            .cls-1 {
                fill: url(#gradient);
            }

            .cls-2 {
                clip-path: url(#clip-path);
            }

            .cls-3 {
                stop-color: #00a7b4;
            }

            .cls-4 {
                stop-color: #00a7b3;
            }

            .cls-5 {
                stop-color: #00a6b3;
            }

            .cls-6 {
                stop-color: #00a6b2;
            }

            .cls-7 {
                stop-color: #00a5b2;
            }

            .cls-8 {
                stop-color: #00a5b1;
            }

            .cls-9 {
                stop-color: #00a4b1;
            }

            .cls-10 {
                stop-color: #00a4b0;
            }

            .cls-11 {
                stop-color: #00a3b0;
            }

            .cls-12 {
                stop-color: #00a3af;
            }

            .cls-13 {
                stop-color: #00a2af;
            }

            .cls-14 {
                stop-color: #00a2ae;
            }

            .cls-15 {
                stop-color: #00a1ae;
            }

            .cls-16 {
                stop-color: #00a1ad;
            }

            .cls-17 {
                stop-color: #00a0ad;
            }

            .cls-18 {
                stop-color: #009fac;
            }

            .cls-19 {
                stop-color: #009eac;
            }

            .cls-20 {
                stop-color: #009dac;
            }

            .cls-21 {
                stop-color: #009dab;
            }

            .cls-22 {
                stop-color: #009cab;
            }

            .cls-23 {
                stop-color: #009baa;
            }

            .cls-24 {
                stop-color: #009aaa;
            }

            .cls-25 {
                stop-color: #0099a9;
            }

            .cls-26 {
                stop-color: #0098a9;
            }

            .cls-27 {
                stop-color: #0097a9;
            }

            .cls-28 {
                stop-color: #0097a8;
            }

            .cls-29 {
                stop-color: #0096a8;
            }

            .cls-30 {
                stop-color: #0095a8;
            }

            .cls-31 {
                stop-color: #0095a7;
            }

            .cls-32 {
                stop-color: #0094a7;
            }

            .cls-33 {
                stop-color: #0093a7;
            }

            .cls-34 {
                stop-color: #0093a6;
            }

            .cls-35 {
                stop-color: #0092a6;
            }

            .cls-36 {
                stop-color: #0091a6;
            }

            .cls-37 {
                stop-color: #0091a5;
            }

            .cls-38 {
                stop-color: #0090a5;
            }

            .cls-39 {
                stop-color: #008fa5;
            }

            .cls-40 {
                stop-color: #008fa4;
            }

            .cls-41 {
                stop-color: #008ea4;
            }

            .cls-42 {
                stop-color: #008da4;
            }

            .cls-43 {
                stop-color: #008da3;
            }

            .cls-44 {
                stop-color: #008ca3;
            }

            .cls-45 {
                stop-color: #008ba3;
            }

            .cls-46 {
                stop-color: #008ba2;
            }

            .cls-47 {
                stop-color: #008aa2;
            }

            .cls-48 {
                stop-color: #0089a2;
            }

            .cls-49 {
                stop-color: #0089a1;
            }

            .cls-50 {
                stop-color: #0088a1;
            }

            .cls-51 {
                stop-color: #0087a1;
            }

            .cls-52 {
                stop-color: #0087a0;
            }

            .cls-53 {
                stop-color: #0086a0;
            }

            .cls-54 {
                stop-color: #0085a0;
            }

            .cls-55 {
                stop-color: #00859f;
            }

            .cls-56 {
                stop-color: #00849f;
            }

            .cls-57 {
                stop-color: #00839f;
            }

            .cls-58 {
                stop-color: #00839e;
            }

            .cls-59 {
                stop-color: #00829e;
            }

            .cls-60 {
                stop-color: #00819e;
            }

            .cls-61 {
                stop-color: #00819d;
            }

            .cls-62 {
                stop-color: #00809d;
            }

            .cls-63 {
                stop-color: #007f9d;
            }

            .cls-64 {
                stop-color: #007f9c;
            }

            .cls-65 {
                stop-color: #007e9c;
            }

            .cls-66 {
                stop-color: #007d9b;
            }

            .cls-67 {
                stop-color: #007c9b;
            }

            .cls-68 {
                stop-color: #007b9a;
            }

            .cls-69 {
                stop-color: #007a9a;
            }

            .cls-70 {
                stop-color: #007999;
            }

            .cls-71 {
                stop-color: #007899;
            }

            .cls-72 {
                stop-color: #007798;
            }

            .cls-73 {
                stop-color: #007698;
            }

            .cls-74 {
                stop-color: #007597;
            }

            .cls-75 {
                stop-color: #007497;
            }
        </style>
        <!-- <clipPath id="clip-path" transform="translate(0 0)">
        </clipPath> -->

        <linearGradient spreadMethod="pad" id="gradient" x1="0%" y1="55%" x2="70%" y2="0%">
            <stop offset="30%" style="stop-color:#007999;stop-opacity:1;" />
            <stop offset="40%" style="stop-color:#007f9d;stop-opacity:1;" />
            <stop offset="60%" style="stop-color:#0091a5;stop-opacity:1;" />
            <stop offset="80%" style="stop-color:#009dac;stop-opacity:1;" />

        </linearGradient>
    </defs>
    <path class="cls-1"
        d="M113.74,240.28H73.45l35.21-91.77L209.19,48.11,161.08,0h-113L0,48.12l46.3,46L50.07,98,96.73,52.48h39.4l-35,91.16L0,244.65,48.39,293h113l47.82-48.12L159.28,195Zm7,5.35,38.5-38.27,37.57,37.57-37.37,37.61Zm-60,3.39L48.53,280.8,16.75,249Zm-4.16,35.27L70.1,249h41.54l37,35.27Zm-39.81-44,76.71-76.6-29.39,76.6ZM192.44,52.48l-76.09,76,29.15-76ZM50.18,85.66,12.39,48.1,50.81,9.68,88,48.77ZM152.91,8.75l-13.42,35H95.31L62,8.75Zm-4.06,35,12.09-31.51,31.51,31.51Z" />

    <!-- <g class="cls-2">
        <polygon class="cls-3" points="209.19 4.43 208.27 0 209.19 0 209.19 4.43" />
        <polygon class="cls-4" points="209.19 10.47 207 0 208.27 0 209.19 4.43 209.19 10.47" />
        <polygon class="cls-5" points="209.19 16.51 205.74 0 207 0 209.19 10.47 209.19 16.51" />
        <polygon class="cls-5" points="209.19 22.56 204.47 0 205.74 0 209.19 16.51 209.19 22.56" />
        <polygon class="cls-6" points="209.19 28.6 203.21 0 204.47 0 209.19 22.56 209.19 28.6" />
        <polygon class="cls-7" points="209.19 34.64 201.94 0 203.21 0 209.19 28.6 209.19 34.64" />
        <polygon class="cls-7" points="209.19 40.69 200.67 0 201.94 0 209.19 34.64 209.19 40.69" />
        <polygon class="cls-8" points="209.19 46.73 199.41 0 200.67 0 209.19 40.69 209.19 46.73" />
        <polygon class="cls-9" points="209.19 52.78 198.14 0 199.41 0 209.19 46.73 209.19 52.78" />
        <polygon class="cls-9" points="209.19 58.82 196.88 0 198.14 0 209.19 52.78 209.19 58.82" />
        <polygon class="cls-10" points="209.19 64.86 195.61 0 196.88 0 209.19 58.82 209.19 64.86" />
        <polygon class="cls-10" points="209.19 70.91 194.34 0 195.61 0 209.19 64.86 209.19 70.91" />
        <polygon class="cls-11" points="209.19 76.95 193.08 0 194.34 0 209.19 70.91 209.19 76.95" />
        <polygon class="cls-12" points="209.19 83 191.81 0 193.08 0 209.19 76.95 209.19 83" />
        <polygon class="cls-12" points="209.19 89.04 190.55 0 191.81 0 209.19 83 209.19 89.04" />
        <polygon class="cls-13" points="209.19 95.08 189.28 0 190.55 0 209.19 89.04 209.19 95.08" />
        <polygon class="cls-13" points="209.19 101.13 188.02 0 189.28 0 209.19 95.08 209.19 101.13" />
        <polygon class="cls-14" points="209.19 107.17 186.75 0 188.02 0 209.19 101.13 209.19 107.17" />
        <polygon class="cls-14" points="209.19 113.21 185.49 0 186.75 0 209.19 107.17 209.19 113.21" />
        <polygon class="cls-14" points="209.19 122.91 183.46 0 185.49 0 209.19 113.21 209.19 122.91" />
        <polygon class="cls-15" points="209.19 132.6 181.43 0 183.46 0 209.19 122.91 209.19 132.6" />
        <polygon class="cls-16" points="209.19 142.29 179.4 0 181.43 0 209.19 132.6 209.19 142.29" />
        <polygon class="cls-17" points="209.19 151.98 177.37 0 179.4 0 209.19 142.29 209.19 151.98" />
        <polygon class="cls-17" points="209.19 161.67 175.34 0 177.37 0 209.19 151.98 209.19 161.67" />
        <polygon class="cls-18" points="209.19 171.37 173.31 0 175.34 0 209.19 161.67 209.19 171.37" />
        <polygon class="cls-19" points="209.19 181.06 171.28 0 173.31 0 209.19 171.37 209.19 181.06" />
        <polygon class="cls-19" points="209.19 190.75 169.25 0 171.28 0 209.19 181.06 209.19 190.75" />
        <polygon class="cls-20" points="209.19 200.44 167.22 0 169.25 0 209.19 190.75 209.19 200.44" />
        <polygon class="cls-21" points="209.19 210.13 165.19 0 167.22 0 209.19 200.44 209.19 210.13" />
        <polygon class="cls-22" points="209.19 219.82 163.16 0 165.19 0 209.19 210.13 209.19 219.82" />
        <polygon class="cls-22" points="209.19 229.52 161.13 0 163.16 0 209.19 219.82 209.19 229.52" />
        <polygon class="cls-23" points="209.19 239.21 159.1 0 161.13 0 209.19 229.52 209.19 239.21" />
        <polygon class="cls-23" points="209.19 248.9 157.07 0 159.1 0 209.19 239.21 209.19 248.9" />
        <polygon class="cls-24" points="209.19 258.59 155.04 0 157.07 0 209.19 248.9 209.19 258.59" />
        <polygon class="cls-24" points="209.19 268.28 153.01 0 155.04 0 209.19 258.59 209.19 268.28" />
        <polygon class="cls-25" points="209.19 277.98 150.98 0 153.01 0 209.19 268.28 209.19 277.98" />
        <polygon class="cls-26" points="209.19 285.82 208.82 285.9 148.95 0 150.98 0 209.19 277.98 209.19 285.82" />
        <polygon class="cls-26" points="208.82 285.9 206.88 286.3 146.92 0 148.95 0 208.82 285.9" />
        <polygon class="cls-27" points="206.88 286.3 204.94 286.71 144.89 0 146.92 0 206.88 286.3" />
        <polygon class="cls-28" points="204.94 286.71 202.99 287.12 142.86 0 144.89 0 204.94 286.71" />
        <polygon class="cls-29" points="202.99 287.12 201.05 287.52 140.83 0 142.86 0 202.99 287.12" />
        <polygon class="cls-29" points="201.05 287.52 199.1 287.93 138.8 0 140.83 0 201.05 287.52" />
        <polygon class="cls-30" points="199.1 287.93 197.16 288.34 136.77 0 138.8 0 199.1 287.93" />
        <polygon class="cls-31" points="197.16 288.34 195.21 288.75 134.74 0 136.77 0 197.16 288.34" />
        <polygon class="cls-32" points="195.21 288.75 193.27 289.15 132.71 0 134.74 0 195.21 288.75" />
        <polygon class="cls-32" points="193.27 289.15 191.32 289.56 130.68 0 132.71 0 193.27 289.15" />
        <polygon class="cls-33" points="191.32 289.56 189.38 289.97 128.65 0 130.68 0 191.32 289.56" />
        <polygon class="cls-34" points="189.38 289.97 187.44 290.38 126.62 0 128.65 0 189.38 289.97" />
        <polygon class="cls-35" points="187.44 290.38 185.49 290.78 124.59 0 126.62 0 187.44 290.38" />
        <polygon class="cls-35" points="185.49 290.78 183.55 291.19 122.56 0 124.59 0 185.49 290.78" />
        <polygon class="cls-36" points="183.55 291.19 181.6 291.6 120.53 0 122.56 0 183.55 291.19" />
        <polygon class="cls-37" points="181.6 291.6 179.66 292 118.5 0 120.53 0 181.6 291.6" />
        <polygon class="cls-38" points="179.66 292 177.71 292.41 116.47 0 118.5 0 179.66 292" />
        <polygon class="cls-38" points="177.71 292.41 175.77 292.82 114.44 0 116.47 0 177.71 292.41" />
        <polygon class="cls-39" points="175.77 292.82 174.75 293.03 173.78 293.03 112.42 0 114.44 0 175.77 292.82" />
        <polygon class="cls-40" points="171.75 293.03 110.39 0 112.42 0 173.78 293.03 171.75 293.03" />
        <polygon class="cls-41" points="169.72 293.03 108.36 0 110.39 0 171.75 293.03 169.72 293.03" />
        <polygon class="cls-41" points="167.69 293.03 106.33 0 108.36 0 169.72 293.03 167.69 293.03" />
        <polygon class="cls-42" points="165.66 293.03 104.3 0 106.33 0 167.69 293.03 165.66 293.03" />
        <polygon class="cls-43" points="163.63 293.03 102.27 0 104.3 0 165.66 293.03 163.63 293.03" />
        <polygon class="cls-44" points="161.6 293.03 100.24 0 102.27 0 163.63 293.03 161.6 293.03" />
        <polygon class="cls-44" points="159.57 293.03 98.21 0 100.24 0 161.6 293.03 159.57 293.03" />
        <polygon class="cls-45" points="157.55 293.03 96.18 0 98.21 0 159.57 293.03 157.55 293.03" />
        <polygon class="cls-46" points="155.52 293.03 94.15 0 96.18 0 157.55 293.03 155.52 293.03" />
        <polygon class="cls-47" points="153.49 293.03 92.12 0 94.15 0 155.52 293.03 153.49 293.03" />
        <polygon class="cls-47" points="151.46 293.03 90.09 0 92.12 0 153.49 293.03 151.46 293.03" />
        <polygon class="cls-48" points="149.43 293.03 88.06 0 90.09 0 151.46 293.03 149.43 293.03" />
        <polygon class="cls-49" points="147.4 293.03 86.03 0 88.06 0 149.43 293.03 147.4 293.03" />
        <polygon class="cls-50" points="145.37 293.03 84 0 86.03 0 147.4 293.03 145.37 293.03" />
        <polygon class="cls-50" points="143.34 293.03 81.97 0 84 0 145.37 293.03 143.34 293.03" />
        <polygon class="cls-51" points="141.31 293.03 79.94 0 81.97 0 143.34 293.03 141.31 293.03" />
        <polygon class="cls-52" points="139.28 293.03 77.91 0 79.94 0 141.31 293.03 139.28 293.03" />
        <polygon class="cls-53" points="137.25 293.03 75.88 0 77.91 0 139.28 293.03 137.25 293.03" />
        <polygon class="cls-53" points="135.22 293.03 73.85 0 75.88 0 137.25 293.03 135.22 293.03" />
        <polygon class="cls-54" points="133.19 293.03 71.82 0 73.85 0 135.22 293.03 133.19 293.03" />
        <polygon class="cls-55" points="131.16 293.03 69.79 0 71.82 0 133.19 293.03 131.16 293.03" />
        <polygon class="cls-56" points="129.13 293.03 67.76 0 69.79 0 131.16 293.03 129.13 293.03" />
        <polygon class="cls-56" points="127.1 293.03 65.73 0 67.76 0 129.13 293.03 127.1 293.03" />
        <polygon class="cls-57" points="125.07 293.03 63.7 0 65.73 0 127.1 293.03 125.07 293.03" />
        <polygon class="cls-58" points="123.04 293.03 61.67 0 63.7 0 125.07 293.03 123.04 293.03" />
        <polygon class="cls-59" points="121.01 293.03 59.64 0 61.67 0 123.04 293.03 121.01 293.03" />
        <polygon class="cls-59" points="118.98 293.03 57.61 0 59.64 0 121.01 293.03 118.98 293.03" />
        <polygon class="cls-60" points="116.95 293.03 55.58 0 57.61 0 118.98 293.03 116.95 293.03" />
        <polygon class="cls-61" points="114.92 293.03 53.55 0 55.58 0 116.95 293.03 114.92 293.03" />
        <polygon class="cls-62" points="112.89 293.03 51.52 0 53.55 0 114.92 293.03 112.89 293.03" />
        <polygon class="cls-62" points="110.86 293.03 49.49 0 51.52 0 112.89 293.03 110.86 293.03" />
        <polygon class="cls-63" points="108.83 293.03 47.46 0 49.49 0 110.86 293.03 108.83 293.03" />
        <polygon class="cls-64" points="106.8 293.03 45.44 0 47.46 0 108.83 293.03 106.8 293.03" />
        <polygon class="cls-65" points="104.77 293.03 43.41 0 45.44 0 106.8 293.03 104.77 293.03" />
        <polygon class="cls-65" points="102.74 293.03 41.38 0 43.41 0 104.77 293.03 102.74 293.03" />
        <polygon class="cls-65" points="100.71 293.03 39.35 0 41.38 0 102.74 293.03 100.71 293.03" />
        <polygon class="cls-66" points="98.68 293.03 37.32 0 39.35 0 100.71 293.03 98.68 293.03" />
        <polygon class="cls-66" points="96.65 293.03 35.29 0 37.32 0 98.68 293.03 96.65 293.03" />
        <polygon class="cls-67" points="94.63 293.03 33.32 0.3 34.73 0 35.29 0 96.65 293.03 94.63 293.03" />
        <polygon class="cls-67" points="92.59 293.03 31.37 0.7 33.32 0.3 94.63 293.03 92.59 293.03" />
        <polygon class="cls-68" points="90.56 293.03 29.43 1.11 31.37 0.7 92.59 293.03 90.56 293.03" />
        <polygon class="cls-68" points="88.53 293.03 27.48 1.52 29.43 1.11 90.56 293.03 88.53 293.03" />
        <polygon class="cls-69" points="86.51 293.03 25.54 1.93 27.48 1.52 88.53 293.03 86.51 293.03" />
        <polygon class="cls-69" points="84.48 293.03 23.6 2.33 25.54 1.93 86.51 293.03 84.48 293.03" />
        <polygon class="cls-70" points="82.45 293.03 21.65 2.74 23.6 2.33 84.48 293.03 82.45 293.03" />
        <polygon class="cls-70" points="80.42 293.03 19.71 3.15 21.65 2.74 82.45 293.03 80.42 293.03" />
        <polygon class="cls-71" points="78.39 293.03 17.76 3.55 19.71 3.15 80.42 293.03 78.39 293.03" />
        <polygon class="cls-71" points="76.36 293.03 15.82 3.96 17.76 3.55 78.39 293.03 76.36 293.03" />
        <polygon class="cls-72" points="74.33 293.03 13.87 4.37 15.82 3.96 76.36 293.03 74.33 293.03" />
        <polygon class="cls-72" points="72.3 293.03 11.93 4.78 13.87 4.37 74.33 293.03 72.3 293.03" />
        <polygon class="cls-73" points="70.27 293.03 9.98 5.18 11.93 4.78 72.3 293.03 70.27 293.03" />
        <polygon class="cls-73" points="68.24 293.03 8.04 5.59 9.98 5.18 70.27 293.03 68.24 293.03" />
        <polygon class="cls-74" points="66.21 293.03 6.1 6 8.04 5.59 68.24 293.03 66.21 293.03" />
        <polygon class="cls-74" points="64.18 293.03 4.15 6.41 6.1 6 66.21 293.03 64.18 293.03" />
        <polygon class="cls-75" points="62.15 293.03 2.21 6.81 4.15 6.41 64.18 293.03 62.15 293.03" />
        <polygon class="cls-75" points="60.12 293.03 0.26 7.22 2.21 6.81 62.15 293.03 60.12 293.03" />
        <polygon class="cls-75" points="0 7.27 0.26 7.22 60.12 293.03 0 293.03 0 7.27" />
    </g> -->

</svg>